<?xml version="1.0" encoding="utf-8"?>
<!-- Generator: Adobe Illustrator 24.3.0, SVG Export Plug-In . SVG Version: 6.00 Build 0)  -->
<svg version="1.1" id="Layer_1" xmlns="http://www.w3.org/2000/svg" xmlns:xlink="http://www.w3.org/1999/xlink" x="0px" y="0px"
	 viewBox="0 0 799 690" style="enable-background:new 0 0 799 690;" xml:space="preserve">
<style type="text/css">
	.st0{clip-path:url(#SVGID_2_);}
	.st1{fill:#A0616A;}
	.st2{fill:#EFACB8;}
	.st3{fill:#FFFFFF;}
	.st4{fill:#2F2E41;}
	.st5{fill:#EEEEEE;}
	.st6{fill:#38D39F;}
	.st7{fill:#3F3D56;}
	.st8{fill:none;stroke:#D0CDE1;stroke-width:2;stroke-miterlimit:10;}
	.st9{fill:#D0CDE1;}
</style>
<g>
	<defs>
		<rect id="SVGID_1_" width="798.6" height="689.2"/>
	</defs>
	<clipPath id="SVGID_2_">
		<use xlink:href="#SVGID_1_"  style="overflow:visible;"/>
	</clipPath>
	<g id="undraw_x5F_dev_x5F_productivity_x5F_umsq__x28_1_x29__1" class="st0">
		<path id="Vector" class="st1" d="M516.9,624.6c0,0-4.8,1.6-12.5,3.9c-17.1,5.1-48.8,13.6-75.6,15.3c-23.1,1.5-42.6-2.1-46.2-17.2
			c-1.5-6.5,0.6-11.8,5.4-16.2c14.1-13.1,51-17.8,80.3-19.4c8.3-0.4,15.9-0.7,22.3-0.7c10.8-0.1,17.9,0.1,17.9,0.1l0.2,0.7
			L516.9,624.6z"/>
		<path id="Vector_2" class="st1" d="M437,672.6c-18.4,22.8-94.3-24.9-120.8-42.7c-5.8-3.9-9.2-6.3-9.2-6.3l24.3-32.4l7.7-10.3
			c0,0,6.9,3.7,17,9.6c0.4,0.2,0.7,0.4,1.1,0.7c8.8,5.2,19.8,11.9,30.9,19.4c15.3,10.4,30.8,22.2,40.8,33.3
			C438.6,654.8,443.1,665,437,672.6z"/>
		<g id="me">
			<path id="Vector_3" class="st2" d="M434.7,192c40.6-0.3,73.3-33.5,72.9-74.2c-0.3-40.6-33.5-73.3-74.2-72.9
				c-40.6,0.3-73.3,33.5-72.9,74.2C360.9,159.7,394.1,192.3,434.7,192z"/>
			<path id="Vector_4" class="st2" d="M379.5,155.6c0,0,14.7,104.3-6.5,116.2c-21.2,11.9,126.9,11.7,126.9,11.7
				s-33.8-90.3-19.1-118.1L379.5,155.6z"/>
			<path id="Vector_5" class="st3" d="M608.1,283.2l-11.8,56.2l-25,118.9l-0.7,6.5l-8.4,75.3l-5.6,50l-3.7,33.6
				c-24.3,12.7-41.9,21.5-41.9,21.5s-1.6-7.6-4.1-17.3c-17.1,5.3-48.7,14.1-75.5,16c9.9,10.8,14.4,21,8.4,28.6
				c-18.2,22.9-94.5-24.1-121.2-41.7c-0.6,4.3-0.8,8.6-0.6,12.9l-20.4-15.4l1.7-36l2.9-60.8l3.6-76.3c-1.4-3.3-2.5-6.6-3.5-10
				c-6.4-22.1-14.3-66.2-20.4-103.2c-4.9-29.8-8.6-54.9-9.4-60.3c-0.1-0.7-0.2-1.1-0.2-1.1l112-50.6c8.1,18.5,45.5,23.7,45.5,23.7
				c30.9-2.4,55-18.9,55-18.9L608.1,283.2z"/>
			<path id="Vector_6" class="st4" d="M372.3,49.4L358.5,44c0,0,28.5-31.9,68.5-29.5L415.6,2.2c0,0,27.4-11.2,52.6,17.4
				c13.3,15.1,28.6,32.8,38.3,52.8l14.7-0.1l-6,13.6l21.6,13.3l-22.1-2.2c1.4,7.4,1.6,15,0.8,22.4c-0.9,7.5-4.6,14.3-10.5,19.1l0,0
				c0,0-17.4-35.1-17.4-40.7l0.1,13.8c0,0-13.9-12.3-13.9-20.5l-7.4,9.7l-3.9-15.1l-46.1,15.5l7.4-12.4l-28.7,4.4L406.3,78
				c0,0-32.3,18.2-33.5,33.3c-1.1,15.1-10.5,29.6-10.5,29.6S336.2,70.3,372.3,49.4z"/>
			<path id="Vector_7" class="st5" d="M690.2,540.4c-7.4,8.2-25.9,20.6-48.3,34c-8.3,5-17.2,10.1-26.2,15.3
				c-21.6,12.2-44.2,24.3-62.9,34.1c-24.3,12.7-41.9,21.5-41.9,21.5s-1.6-7.6-4.1-17.3c-3.4-13-8.5-29.8-13.7-37.3
				c-0.2-0.3-0.4-0.5-0.5-0.7c-1.5-2-3-3.1-4.5-3.1l74-46.8l32-20.2l-23.6-55.1l-29.6-69.1l17.1-56l17.2-56.2l33-0.3
				c0,0,11.1,23.8,25.4,57c2.1,5,4.3,10.1,6.6,15.5C669.5,425.4,706.2,522.8,690.2,540.4z"/>
			<path id="Vector_8" class="st5" d="M358.1,591.2c-2.7,0-5.4,0.3-8.1,0.7c-23,4.1-29.6,25-31.4,39c-0.6,4.3-0.8,8.6-0.6,12.9
				l-20.4-15.4l-7.4-5.6c-17.9-6.1-33.8-17-47.7-29.8c-12-11.4-22.8-24-32.3-37.6c-9.4-13.4-17.8-27.5-25.1-42.2
				c-2-4.1-3.2-8.6-3.3-13.1c-0.1-4.6,0.8-9.1,2.6-13.3l24.7-56.3l36.1-82.2c0.3-2,0.5-3.9,0.8-5.7c6.9-41.9,26.3-60.6,26.3-60.6
				l14.9-0.1l10.5,60.3l13,74.9l-8.4,28.4l-19.5,65.6l19.4,20.7L358.1,591.2z"/>
		</g>
		<path id="Vector_9" class="st6" d="M372.9,415.8l12.8,14.9c4.7-0.9,9.7-2,14.8-3.2l-3.7-11.7l9,10.5
			c54-13.3,120.9-39.1,120.9-39.1s-72.3,5.3-126.2-6.5c-23.9-5.2-48.4,6.6-58.2,29c-5.7,13-4.8,24.3,15.4,24.3
			c6.8-0.1,13.6-0.8,20.4-1.9L372.9,415.8z"/>
		<path id="Vector_10" class="st7" d="M663.7,660.4v6.1c0,1.7-0.3,3.3-0.9,4.9c-0.3,0.7-0.6,1.4-1,2c-1.2,2-2.9,3.7-4.9,4.8
			c-2,1.2-4.3,1.8-6.6,1.8H203.7c-2.3,0-4.6-0.6-6.6-1.8s-3.7-2.8-4.9-4.8c-0.4-0.6-0.7-1.3-1-2c-0.6-1.6-0.9-3.2-0.9-4.9v-6.1
			c0-1.8,0.3-3.5,1-5.1c0.7-1.6,1.7-3.1,2.9-4.4c1.2-1.2,2.7-2.2,4.4-2.9c1.6-0.7,3.4-1,5.1-1h25.7v-2.8c0-0.1,0-0.1,0-0.2
			s0.1-0.1,0.1-0.2s0.1-0.1,0.2-0.1c0.1,0,0.1,0,0.2,0h13.4c0.1,0,0.1,0,0.2,0c0.1,0,0.1,0.1,0.2,0.1s0.1,0.1,0.1,0.2s0,0.1,0,0.2
			v2.8h8.4v-2.8c0-0.1,0-0.1,0-0.2s0.1-0.1,0.1-0.2c0.1-0.1,0.1-0.1,0.2-0.1c0.1,0,0.1,0,0.2,0h13.4c0.1,0,0.1,0,0.2,0
			c0.1,0,0.1,0.1,0.2,0.1c0.1,0.1,0.1,0.1,0.1,0.2c0,0.1,0,0.1,0,0.2v2.8h8.4v-2.8c0-0.1,0-0.1,0-0.2c0-0.1,0.1-0.1,0.1-0.2
			s0.1-0.1,0.2-0.1c0.1,0,0.1,0,0.2,0h13.4c0.1,0,0.1,0,0.2,0c0.1,0,0.1,0.1,0.2,0.1c0.1,0.1,0.1,0.1,0.1,0.2c0,0.1,0,0.1,0,0.2v2.8
			h8.4v-2.8c0-0.1,0-0.1,0-0.2c0-0.1,0.1-0.1,0.1-0.2s0.1-0.1,0.2-0.1c0.1,0,0.1,0,0.2,0h13.4c0.1,0,0.1,0,0.2,0
			c0.1,0,0.1,0.1,0.2,0.1s0.1,0.1,0.1,0.2c0,0.1,0,0.1,0,0.2v2.8h8.4v-2.8c0-0.1,0-0.1,0-0.2c0-0.1,0.1-0.1,0.1-0.2s0.1-0.1,0.2-0.1
			c0.1,0,0.1,0,0.2,0h13.4c0.1,0,0.1,0,0.2,0c0.1,0,0.1,0.1,0.2,0.1s0.1,0.1,0.1,0.2c0,0.1,0,0.1,0,0.2v2.8h8.4v-2.8
			c0-0.1,0-0.1,0-0.2c0-0.1,0.1-0.1,0.1-0.2s0.1-0.1,0.2-0.1c0.1,0,0.1,0,0.2,0h13.4c0.1,0,0.1,0,0.2,0c0.1,0,0.1,0.1,0.2,0.1
			c0.1,0.1,0.1,0.1,0.1,0.2c0,0.1,0,0.1,0,0.2v2.8h8.4v-2.8c0-0.1,0-0.1,0-0.2c0-0.1,0.1-0.1,0.1-0.2s0.1-0.1,0.2-0.1
			c0.1,0,0.1,0,0.2,0h105.2c0.1,0,0.1,0,0.2,0c0.1,0,0.1,0.1,0.2,0.1c0.1,0.1,0.1,0.1,0.1,0.2c0,0.1,0,0.1,0,0.2v2.8h8.4v-2.8
			c0-0.1,0-0.1,0-0.2c0-0.1,0.1-0.1,0.1-0.2s0.1-0.1,0.2-0.1c0.1,0,0.1,0,0.2,0h13.4c0.1,0,0.3,0.1,0.4,0.2c0.1,0.1,0.2,0.2,0.2,0.4
			v2.8h8.4v-2.8c0-0.1,0-0.1,0-0.2c0-0.1,0.1-0.1,0.1-0.2s0.1-0.1,0.2-0.1c0.1,0,0.1,0,0.2,0h13.4c0.1,0,0.1,0,0.2,0
			c0.1,0,0.1,0.1,0.2,0.1s0.1,0.1,0.1,0.2c0,0.1,0,0.1,0,0.2v2.8h8.4v-2.8c0-0.1,0-0.1,0-0.2s0.1-0.1,0.1-0.2s0.1-0.1,0.2-0.1
			c0.1,0,0.1,0,0.2,0h13.4c0.1,0,0.1,0,0.2,0c0.1,0,0.1,0.1,0.2,0.1s0.1,0.1,0.1,0.2c0,0.1,0,0.1,0,0.2v2.8h8.4v-2.8
			c0-0.1,0-0.1,0-0.2c0-0.1,0.1-0.1,0.1-0.2s0.1-0.1,0.2-0.1c0.1,0,0.1,0,0.2,0h13.4c0.1,0,0.3,0.1,0.4,0.2c0.1,0.1,0.2,0.2,0.2,0.4
			v2.8h8.4v-2.8c0-0.1,0-0.1,0-0.2c0-0.1,0.1-0.1,0.1-0.2s0.1-0.1,0.2-0.1c0.1,0,0.1,0,0.2,0h13.4c0.1,0,0.1,0,0.2,0
			c0.1,0,0.1,0.1,0.2,0.1s0.1,0.1,0.1,0.2s0,0.1,0,0.2v2.8h8.4v-2.8c0-0.1,0-0.1,0-0.2c0-0.1,0.1-0.1,0.1-0.2s0.1-0.1,0.2-0.1
			c0.1,0,0.1,0,0.2,0h13.4c0.1,0,0.1,0,0.2,0c0.1,0,0.1,0.1,0.2,0.1s0.1,0.1,0.1,0.2s0,0.1,0,0.2v2.8h39.2c1.8,0,3.5,0.3,5.1,1
			c1.6,0.7,3.1,1.7,4.4,2.9c1.2,1.2,2.2,2.7,2.9,4.4C663.3,656.9,663.7,658.6,663.7,660.4z"/>
		<path id="Vector_11" class="st7" d="M793.5,671.3h-733v2h733V671.3z"/>
		<path id="Vector_12" class="st7" d="M627.7,404.8H461.3v-3.4h-75.5v3.4H218.7c-3,0-5.9,1.2-8,3.3c-2.1,2.1-3.3,5-3.3,8v227.9
			c0,3,1.2,5.8,3.3,8c2.1,2.1,5,3.3,8,3.3h409c3,0,5.9-1.2,8-3.3c2.1-2.1,3.3-5,3.3-8V416c0-1.5-0.3-2.9-0.9-4.3s-1.4-2.6-2.4-3.7
			c-1-1-2.3-1.9-3.7-2.4C630.6,405,629.2,404.8,627.7,404.8z"/>
		<path id="Vector_13" class="st8" d="M423.5,509.3c13.8,0,25-11.2,25-25c0-13.8-11.2-25-25-25s-25,11.2-25,25
			C398.5,498.1,409.7,509.3,423.5,509.3z"/>
		<path id="Vector_14" class="st9" d="M415.5,518.3c13.8,0,25-11.2,25-25c0-13.8-11.2-25-25-25s-25,11.2-25,25
			C390.5,507.1,401.7,518.3,415.5,518.3z"/>
		<path id="Vector_15" class="st9" d="M108.4,661.2h-28v28h28V661.2z"/>
		<path id="Vector_16" class="st7" d="M91.5,639.2v34h34v-34H91.5z M124,671.7h-31v-31h31V671.7z"/>
		<path id="Vector_17" class="st9" d="M756.4,661.2h-28v28h28V661.2z"/>
		<path id="Vector_18" class="st7" d="M739.5,639.2v34h34v-34H739.5z M772,671.7h-31v-31h31V671.7z"/>
		<path id="Vector_19" class="st6" d="M94.6,230.1c43.8,0,79.3-35.5,79.3-79.3c0-43.8-35.5-79.3-79.3-79.3
			c-43.8,0-79.3,35.5-79.3,79.3C15.2,194.6,50.8,230.1,94.6,230.1z"/>
		<path id="Vector_20" class="st7" d="M122.2,56.5c-7.2-0.9-14.5-0.9-21.6,0c-16,2.1-31.1,8.7-43.4,19.2S35.7,99.8,31,115.2
			c-2.2,7-3.4,14.3-3.7,21.7c0,1-0.1,2.1-0.1,3.1c0,22.3,8.9,43.7,24.7,59.5c15.8,15.8,37.2,24.6,59.5,24.7c1.8,0,3.6-0.1,5.3-0.2
			c4.1-0.3,8.3-0.8,12.3-1.7c19.4-4.2,36.7-15.1,48.9-30.8c12.1-15.7,18.4-35.2,17.5-55c-0.8-19.8-8.6-38.7-22-53.4
			C160.1,68.5,141.9,59,122.2,56.5L122.2,56.5z M137.7,217.3L137.7,217.3c-6.8,2.3-13.8,3.7-21,4.2c-1.8,0.1-3.6,0.2-5.3,0.2
			c-21.7,0-42.4-8.6-57.8-24c-15.3-15.3-23.9-36.1-24-57.8c0-1,0-2.1,0.1-3.1c0.8-21.1,9.8-41.1,25-55.8
			C70,66.4,90.3,58.2,111.4,58.2c19.4,0,38.1,6.9,52.9,19.4c14.8,12.5,24.6,29.9,27.8,49c3.2,19.1-0.6,38.7-10.5,55.3
			S156.1,211.1,137.7,217.3L137.7,217.3z"/>
		<path id="Vector_21" class="st7" d="M112.6,63h-2.4v16.8h2.4V63z"/>
		<path id="Vector_22" class="st7" d="M57.9,84.7l-1.7,1.7l11.9,11.9l1.7-1.7L57.9,84.7z"/>
		<path id="Vector_23" class="st7" d="M34.5,138.8v2.4h16.8v-2.4H34.5z"/>
		<path id="Vector_24" class="st7" d="M56.2,193.5l1.7,1.7l11.9-11.9l-1.7-1.7L56.2,193.5z"/>
		<path id="Vector_25" class="st7" d="M153.1,96.6l1.7,1.7l11.9-11.9l-1.7-1.7L153.1,96.6z"/>
		<path id="Vector_26" class="st7" d="M171.5,138.8v2.4h16.8v-2.4H171.5z"/>
		<path id="Vector_27" class="st7" d="M154.8,181.6l-1.7,1.7l11.9,11.9l1.7-1.7L154.8,181.6z"/>
		<path id="Vector_28" class="st7" d="M112.6,200.1h-2.4v16.8h2.4V200.1z"/>
		<path id="Vector_29" class="st7" d="M115,135.1c-1-0.8-2.3-1.2-3.6-1.2c-1.3,0-2.6,0.4-3.6,1.2c-0.7,0.5-1.3,1.2-1.7,2
			c-0.5,1-0.8,2.2-0.7,3.3c0.1,1.1,0.5,2.2,1.2,3.1c0.7,0.9,1.6,1.6,2.7,2c1.1,0.4,2.2,0.5,3.4,0.2c1.1-0.3,2.1-0.8,2.9-1.6
			c0.8-0.8,1.4-1.8,1.6-3c0.2-1.1,0.2-2.3-0.2-3.4C116.6,136.8,115.9,135.8,115,135.1L115,135.1z M111.4,143.6c-1,0-1.9-0.4-2.5-1.1
			c-0.7-0.7-1.1-1.6-1.1-2.5c0-0.7,0.2-1.4,0.6-2c0.4-0.5,0.8-0.9,1.4-1.2c0.6-0.3,1.2-0.4,1.8-0.4c0.6,0,1.2,0.2,1.7,0.6
			c0.5,0.3,0.9,0.8,1.2,1.4c0.3,0.5,0.4,1.2,0.4,1.8c0,0.6-0.2,1.2-0.5,1.8c-0.3,0.5-0.8,1-1.3,1.3
			C112.6,143.4,112,143.6,111.4,143.6L111.4,143.6z"/>
		<path id="Vector_30" class="st7" d="M122.2,35.4h-21.6V57h21.6V35.4z"/>
		<path id="Vector_31" class="st7" d="M111.4,39c15.9,0,28.9-4.6,28.9-10.2s-12.9-10.2-28.9-10.2c-15.9,0-28.9,4.6-28.9,10.2
			S95.5,39,111.4,39z"/>
		<path id="clock-arrow" class="st7" d="M115,86h-7v49h7V86z"/>
		<path id="Vector_32" class="st7" d="M226,220.4H0v2.4h226V220.4z"/>
		<g id="plant-left">
			<path id="Vector_33" class="st9" d="M150.6,599.8c0.9,31.9-17.7,43.7-41.2,44.3c-0.5,0-1.1,0-1.6,0c-1.1,0-2.2,0-3.2-0.1
				c-21.2-0.9-38-12.1-38.8-41.8c-0.9-30.8,37.3-70.7,40.1-73.7l0,0c0.1-0.1,0.2-0.2,0.2-0.2S149.7,567.8,150.6,599.8z"/>
			<path id="Vector_34" class="st7" d="M107.7,639.3l14.9-22.1l-14.9,24.5l0,2.5c-1.1,0-2.2,0-3.2-0.1l0.7-32l0-0.2l0,0l0.1-3
				l-16.3-23.7l16.3,21.4l0.1,0.6l0.6-24.2l-14.1-24.5l14.1,20.3l-0.1-50.1v-0.2l0,0.2l0.9,39.5l12.8-16l-12.8,19.4l0.3,21.6
				l11.8-21.1l-11.8,24.3l0.2,12l17.2-29.4l-17.1,33.6L107.7,639.3z"/>
		</g>
		<g id="plant-right">
			<path id="Vector_35" class="st9" d="M798.6,599.8c0.9,31.9-17.7,43.7-41.2,44.3c-0.5,0-1.1,0-1.6,0c-1.1,0-2.2,0-3.2-0.1
				c-21.2-0.9-38-12.1-38.8-41.8c-0.9-30.8,37.3-70.7,40.1-73.7l0,0c0.1-0.1,0.2-0.2,0.2-0.2S797.7,567.8,798.6,599.8z"/>
			<path id="Vector_36" class="st7" d="M755.7,639.3l14.9-22.1l-14.9,24.5l0,2.5c-1.1,0-2.2,0-3.2-0.1l0.7-32l0-0.2l0,0l0.1-3
				l-16.3-23.7l16.3,21.4l0.1,0.6l0.6-24.2l-14.1-24.5l14.1,20.3l-0.1-50.1v-0.2l0,0.2l0.9,39.5l12.8-16l-12.8,19.4l0.3,21.6
				l11.8-21.1l-11.8,24.3l0.2,12l17.2-29.4l-17.1,33.6L755.7,639.3z"/>
		</g>
	</g>
</g>
</svg>
